<svg viewBox="0 0 1024 1024" version="1.1" xmlns="http://www.w3.org/2000/svg" width="22" height="22"><path d="M311.296 428.544V40.96C186.368 94.208 87.552 195.072 36.864 321.024l274.432 274.432V428.544z" fill="#37C15C"></path><path d="M428.544 311.296l274.432-274.432C642.048 12.288 577.536 0 512 0 440.832 0 372.736 14.848 311.296 40.96v387.584l117.248-117.248z" fill="#A9E247"></path><path d="M983.04 311.296h-387.584l117.248 117.248 274.432 274.432c24.576-60.416 36.864-125.44 36.864-190.976 0-71.168-14.848-139.264-40.96-200.704z" fill="#FF7D12"></path><path d="M712.704 595.456V983.04c124.928-53.248 223.744-154.112 274.432-280.064l-274.432-274.432v166.912z" fill="#F93B21"></path><path d="M595.456 712.704l-274.432 274.432c60.928 24.576 125.44 36.864 190.976 36.864 71.168 0 139.264-14.848 200.704-40.96v-387.584l-117.248 117.248z" fill="#846FEF"></path><path d="M428.544 712.704H40.96c53.248 124.928 154.112 223.744 280.064 274.432l274.432-274.432H428.544z" fill="#1E95FF"></path><path d="M311.296 595.456L36.864 321.024C12.288 381.952 0 446.464 0 512c0 71.168 14.848 139.264 40.96 200.704h387.584l-117.248-117.248z" fill="#14EFEF"></path><path d="M595.456 311.296H983.04c-53.248-124.928-154.112-223.744-280.064-274.432L428.544 311.296h166.912z" fill="#FFC931"></path></svg>
